<?xml version="1.0" encoding="UTF-8"?>
<svg version="1.1" xmlns="http://www.w3.org/2000/svg" width="32" height="32">
<path d="M0 0 C10.56 0 21.12 0 32 0 C32 10.56 32 21.12 32 32 C21.44 32 10.88 32 0 32 C0 21.44 0 10.88 0 0 Z " fill="#F2F2F0" transform="translate(0,0)"/>
<path d="M0 0 C10.56 0 21.12 0 32 0 C32 10.56 32 21.12 32 32 C28.04 32 24.08 32 20 32 C20 31.34 20 30.68 20 30 C21.32 30 22.64 30 24 30 C24.33 23.07 24.66 16.14 25 9 C26.65 9 28.3 9 30 9 C30 7.35 30 5.7 30 4 C24.72 4 19.44 4 14 4 C13.67 5.32 13.34 6.64 13 8 C10.75 8.75 10.75 8.75 8 9 C6.68 7.68 5.36 6.36 4 5 C3.67 12.92 3.34 20.84 3 29 C3.99 29.33 4.98 29.66 6 30 C5.67 30.66 5.34 31.32 5 32 C3.35 32 1.7 32 0 32 C0 21.44 0 10.88 0 0 Z " fill="#FBFCFA" transform="translate(0,0)"/>
<path d="M0 0 C4.95 0 9.9 0 15 0 C15 1.65 15 3.3 15 5 C13.35 5 11.7 5 10 5 C10 11.27 10 17.54 10 24 C8.35 24 6.7 24 5 24 C5 17.73 5 11.46 5 5 C3.35 5 1.7 5 0 5 C0 3.35 0 1.7 0 0 Z " fill="#FAAD78" transform="translate(15,4)"/>
<path d="M0 0 C2.64 1.98 5.28 3.96 8 6 C9.32 6.66 10.64 7.32 12 8 C14.23470405 7.21690533 14.23470405 7.21690533 16 6 C16.25 8.8125 16.25 8.8125 16 12 C14 13.875 14 13.875 12 15 C9.50638429 13.79618552 7.31856917 12.54571278 5 11 C4.67 15.29 4.34 19.58 4 24 C2.68 24 1.36 24 0 24 C0 16.08 0 8.16 0 0 Z " fill="#030303" transform="translate(3,4)"/>
<path d="M0 0 C0.53625 0.53625 1.0725 1.0725 1.625 1.625 C4.03947071 3.39067945 4.03947071 3.39067945 7.25 2.1875 C8.1575 1.795625 9.065 1.40375 10 1 C10.25 3.8125 10.25 3.8125 10 7 C8 8.875 8 8.875 6 10 C3.04590299 8.62845496 0.55991624 7.01136276 -2 5 C-1.34 3.35 -0.68 1.7 0 0 Z " fill="#111112" transform="translate(9,9)"/>
<path d="M0 0 C0 1.65 0 3.3 0 5 C-1.98 5 -3.96 5 -6 5 C-6 6.32 -6 7.64 -6 9 C-6.66 9 -7.32 9 -8 9 C-8.33 7.68 -8.66 6.36 -9 5 C-10.65 4.67 -12.3 4.34 -14 4 C-14 3.01 -14 2.02 -14 1 C-9.27616037 0.34843591 -4.78025483 -0.11950637 0 0 Z " fill="#FE904D" transform="translate(30,4)"/>
<path d="M0 0 C0 4.62 0 9.24 0 14 C-0.99 14 -1.98 14 -3 14 C-3 9.71 -3 5.42 -3 1 C-1 0 -1 0 0 0 Z " fill="#FC914D" transform="translate(24,14)"/>
<path d="M0 0 C1.98 0 3.96 0 6 0 C6 1.65 6 3.3 6 5 C4.35 5 2.7 5 1 5 C0.67 3.35 0.34 1.7 0 0 Z " fill="#FA9C61" transform="translate(24,4)"/>
</svg>
